<?xml version="1.0" standalone="no"?>
<!DOCTYPE svg PUBLIC "-//W3C//DTD SVG 20010904//EN"
 "http://www.w3.org/TR/2001/REC-SVG-20010904/DTD/svg10.dtd">
<svg version="1.0" xmlns="http://www.w3.org/2000/svg"
 width="512.000000pt" height="512.000000pt" viewBox="0 0 512.000000 512.000000"
 preserveAspectRatio="xMidYMid meet">
<metadata>
Created by potrace 1.14, written by Peter Selinger 2001-2017
</metadata>
<g transform="translate(0.000000,512.000000) scale(0.100000,-0.100000)"
fill="#000000" stroke="none">
<path d="M30 5100 l-25 -19 -2 -408 c-3 -435 -1 -455 48 -558 13 -27 51 -77
85 -111 95 -95 225 -148 393 -160 72 -5 80 -4 106 19 43 36 39 81 -11 124
-164 144 -207 226 -189 364 l7 46 148 1 c90 0 157 5 170 12 40 22 42 39 41
487 -1 171 -1 172 -26 198 l-26 25 -347 0 c-327 0 -348 -2 -372 -20z"/>
<path d="M997 5109 c-31 -18 -38 -58 -37 -223 1 -89 1 -168 1 -176 -1 -95 1
-430 3 -445 24 -191 171 -345 382 -399 86 -22 191 -30 225 -16 31 13 51 54 44
90 -2 14 -19 38 -37 53 -86 74 -133 126 -155 174 -28 61 -39 143 -26 193 l9
35 146 2 c88 1 155 6 167 13 42 22 43 33 42 447 l-1 212 -25 26 -26 25 -347 0
c-224 -1 -353 -4 -365 -11z"/>
<path d="M1945 4814 c-21 -21 -25 -33 -22 -61 3 -18 15 -43 27 -53 23 -20 47
-20 1290 -20 1230 0 1268 -1 1289 -19 12 -10 24 -29 26 -42 4 -17 6 -502 3
-619 0 -8 0 -152 0 -320 1 -168 1 -312 0 -320 0 -8 0 -152 0 -320 1 -168 1
-312 0 -320 0 -8 1 -153 2 -321 0 -168 0 -310 -1 -315 -1 -5 -1 -140 0 -300 1
-271 2 -292 20 -313 11 -12 31 -24 46 -27 71 -13 96 29 95 154 -1 86 -2 693
-2 722 1 8 1 152 0 320 0 168 0 312 0 320 1 8 1 152 0 320 0 168 0 312 0 320
1 8 1 152 0 320 0 168 0 312 1 320 2 103 -1 383 -5 409 -8 46 -58 121 -98 148
-18 12 -51 26 -72 32 -27 8 -428 11 -1306 11 l-1267 0 -26 -26z"/>
<path d="M445 3668 c-11 -6 -26 -18 -33 -26 -13 -17 -13 -59 -11 -2172 1 -520
1 -954 0 -965 0 -11 6 -41 15 -67 19 -57 93 -128 151 -146 49 -15 2547 -17
2586 -3 29 11 52 61 42 92 -19 58 74 54 -1316 59 l-1277 5 -21 24 c-18 21 -21
38 -22 135 -1 61 -1 115 0 119 1 5 1 434 0 955 0 521 -1 954 -1 962 4 224 0
969 -4 987 -6 23 -50 53 -76 53 -7 0 -22 -6 -33 -12z"/>
<path d="M1025 3414 l-25 -27 0 -827 c0 -824 0 -827 21 -851 l21 -24 1511 -2
c1479 -3 1513 -2 1537 17 l25 19 3 835 2 835 -25 25 -26 26 -1510 0 -1510 0
-24 -26z"/>
<path d="M3543 1268 c-25 -12 -47 -68 -38 -97 3 -11 27 -37 53 -58 124 -101
167 -177 165 -288 -2 -115 11 -104 -132 -104 -69 0 -138 0 -152 0 -14 -1 -38
-12 -53 -26 l-26 -24 0 -301 c0 -324 4 -351 52 -364 30 -8 682 -8 703 0 40 16
45 51 45 331 0 572 -1 582 -65 692 -57 97 -152 169 -275 211 -98 33 -238 47
-277 28z"/>
<path d="M4509 1274 c-8 -3 -23 -18 -33 -35 -25 -43 -14 -82 37 -121 136 -105
189 -217 170 -354 l-5 -42 -148 0 c-152 0 -181 -6 -200 -42 -6 -11 -10 -133
-11 -313 -1 -319 3 -347 53 -361 13 -3 175 -6 361 -6 l338 0 25 27 24 26 0
401 c-1 445 -4 470 -65 574 -55 94 -141 163 -261 208 -35 13 -64 22 -64 19 0
-2 -11 0 -24 5 -27 10 -173 20 -197 14z"/>
</g>
</svg>
